<svg xmlns="http://www.w3.org/2000/svg" width="192" height="64" viewBox="0 0 192 64"><defs><linearGradient id="steel" x1="0" y1="0" x2="1" y2="1"><stop stop-color="#536b80"/><stop offset=".45" stop-color="#26394c"/><stop offset="1" stop-color="#111c2a"/></linearGradient></defs><g transform="translate(0 0)"><rect x="8" y="17" width="48" height="33" rx="5" fill="url(#steel)" stroke="#b4c3d1" stroke-width="2"/><path d="M14 24h36M14 31h36M14 38h36M14 45h36" stroke="#425c73" stroke-width="2"/><path d="M15 24h7 M49 45h7" stroke="#fb923c" stroke-width="3" stroke-linecap="round"/><path d="M14 12v6m36-6v6M14 50v5m36-5v5" stroke="#67d9ed" stroke-width="3"/><circle cx="13" cy="12" r="3" fill="#38bdf8"/><circle cx="51" cy="12" r="3" fill="#fb923c"/><path d="M12 58h40" stroke="#020817" stroke-opacity=".45" stroke-width="2"/></g><g transform="translate(64 0)"><rect x="8" y="17" width="48" height="33" rx="5" fill="url(#steel)" stroke="#b4c3d1" stroke-width="2"/><path d="M14 24h36M14 31h36M14 38h36M14 45h36" stroke="#425c73" stroke-width="2"/><path d="M15 24h20 M49 45h20" stroke="#fb923c" stroke-width="3" stroke-linecap="round"/><path d="M14 12v6m36-6v6M14 50v5m36-5v5" stroke="#67d9ed" stroke-width="3"/><circle cx="13" cy="12" r="3" fill="#38bdf8"/><circle cx="51" cy="12" r="3" fill="#fb923c"/><path d="M12 58h40" stroke="#020817" stroke-opacity=".45" stroke-width="2"/></g><g transform="translate(128 0)"><rect x="8" y="17" width="48" height="33" rx="5" fill="url(#steel)" stroke="#b4c3d1" stroke-width="2"/><path d="M14 24h36M14 31h36M14 38h36M14 45h36" stroke="#425c73" stroke-width="2"/><path d="M15 24h36 M49 45h36" stroke="#fb923c" stroke-width="3" stroke-linecap="round"/><path d="M14 12v6m36-6v6M14 50v5m36-5v5" stroke="#67d9ed" stroke-width="3"/><circle cx="13" cy="12" r="3" fill="#38bdf8"/><circle cx="51" cy="12" r="3" fill="#fb923c"/><path d="M12 58h40" stroke="#020817" stroke-opacity=".45" stroke-width="2"/></g></svg>
