<svg xmlns="http://www.w3.org/2000/svg" width="192" height="64" viewBox="0 0 192 64"><defs><linearGradient id="steel" x1="0" y1="0" x2="1" y2="1"><stop stop-color="#536b80"/><stop offset=".45" stop-color="#26394c"/><stop offset="1" stop-color="#111c2a"/></linearGradient></defs><g transform="translate(0 0)"><circle cx="32" cy="34" r="20" fill="#0b1725" stroke="#70d7ee" stroke-width="2"/><circle cx="32" cy="34" r="15" fill="url(#steel)" stroke="#647b91"/><g transform="rotate(0 32 34)" fill="#46c8e8"><path d="M32 34c-11-4-8-10-2-14 4 5 5 9 2 14m0 0c4-11 10-8 14-2-5 4-9 5-14 2m0 0c11 4 8 10 2 14-4-5-5-9-2-14m0 0c-4 11-10 8-14 2 5-4 9-5 14-2"/></g><circle cx="32" cy="34" r="4" fill="#d9faff"/><path d="M12 20h7m26 0h7M12 48h7m26 0h7" stroke="#9aafc4" stroke-width="3" stroke-linecap="round"/><circle cx="48" cy="16" r="2.4" fill="#4ade80"/><path d="M12 58h40" stroke="#020817" stroke-opacity=".45" stroke-width="2"/></g><g transform="translate(64 0)"><circle cx="32" cy="34" r="20" fill="#0b1725" stroke="#70d7ee" stroke-width="2"/><circle cx="32" cy="34" r="15" fill="url(#steel)" stroke="#647b91"/><g transform="rotate(120 32 34)" fill="#46c8e8"><path d="M32 34c-11-4-8-10-2-14 4 5 5 9 2 14m0 0c4-11 10-8 14-2-5 4-9 5-14 2m0 0c11 4 8 10 2 14-4-5-5-9-2-14m0 0c-4 11-10 8-14 2 5-4 9-5 14-2"/></g><circle cx="32" cy="34" r="4" fill="#d9faff"/><path d="M12 20h7m26 0h7M12 48h7m26 0h7" stroke="#9aafc4" stroke-width="3" stroke-linecap="round"/><circle cx="48" cy="16" r="2.4" fill="#4ade80"/><path d="M12 58h40" stroke="#020817" stroke-opacity=".45" stroke-width="2"/></g><g transform="translate(128 0)"><circle cx="32" cy="34" r="20" fill="#0b1725" stroke="#70d7ee" stroke-width="2"/><circle cx="32" cy="34" r="15" fill="url(#steel)" stroke="#647b91"/><g transform="rotate(240 32 34)" fill="#46c8e8"><path d="M32 34c-11-4-8-10-2-14 4 5 5 9 2 14m0 0c4-11 10-8 14-2-5 4-9 5-14 2m0 0c11 4 8 10 2 14-4-5-5-9-2-14m0 0c-4 11-10 8-14 2 5-4 9-5 14-2"/></g><circle cx="32" cy="34" r="4" fill="#d9faff"/><path d="M12 20h7m26 0h7M12 48h7m26 0h7" stroke="#9aafc4" stroke-width="3" stroke-linecap="round"/><circle cx="48" cy="16" r="2.4" fill="#4ade80"/><path d="M12 58h40" stroke="#020817" stroke-opacity=".45" stroke-width="2"/></g></svg>
