<svg xmlns="http://www.w3.org/2000/svg" width="192" height="64" viewBox="0 0 192 64"><defs><linearGradient id="steel" x1="0" y1="0" x2="1" y2="1"><stop stop-color="#536b80"/><stop offset=".45" stop-color="#26394c"/><stop offset="1" stop-color="#111c2a"/></linearGradient></defs><g transform="translate(0 0)"><ellipse cx="32" cy="17" rx="18" ry="6" fill="#8395a8"/><path d="M14 17v29c0 4 8 8 18 8s18-4 18-8V17" fill="url(#steel)" stroke="#a4b8c9" stroke-width="2"/><ellipse cx="32" cy="17" rx="18" ry="6" fill="#26384b" stroke="#c4d2de" stroke-width="2"/><path d="M17 35h30v11c-6 5-24 5-30 0z" fill="#137da1" opacity=".88"/><path d="M17 35q5 -2 10 0t10 0t10 0" fill="none" stroke="#77e5f5" stroke-width="2"/><path d="M21 22v23" stroke="#e2e8f0" opacity=".35" stroke-width="3"/><rect x="45" y="27" width="4" height="9" rx="2" fill="#34d399"/><path d="M12 58h40" stroke="#020817" stroke-opacity=".45" stroke-width="2"/></g><g transform="translate(64 0)"><ellipse cx="32" cy="17" rx="18" ry="6" fill="#8395a8"/><path d="M14 17v29c0 4 8 8 18 8s18-4 18-8V17" fill="url(#steel)" stroke="#a4b8c9" stroke-width="2"/><ellipse cx="32" cy="17" rx="18" ry="6" fill="#26384b" stroke="#c4d2de" stroke-width="2"/><path d="M17 35h30v11c-6 5-24 5-30 0z" fill="#137da1" opacity=".88"/><path d="M17 36q5 -2 10 0t10 0t10 0" fill="none" stroke="#77e5f5" stroke-width="2"/><path d="M21 22v23" stroke="#e2e8f0" opacity=".35" stroke-width="3"/><rect x="45" y="27" width="4" height="9" rx="2" fill="#34d399"/><path d="M12 58h40" stroke="#020817" stroke-opacity=".45" stroke-width="2"/></g><g transform="translate(128 0)"><ellipse cx="32" cy="17" rx="18" ry="6" fill="#8395a8"/><path d="M14 17v29c0 4 8 8 18 8s18-4 18-8V17" fill="url(#steel)" stroke="#a4b8c9" stroke-width="2"/><ellipse cx="32" cy="17" rx="18" ry="6" fill="#26384b" stroke="#c4d2de" stroke-width="2"/><path d="M17 35h30v11c-6 5-24 5-30 0z" fill="#137da1" opacity=".88"/><path d="M17 34q5 -2 10 0t10 0t10 0" fill="none" stroke="#77e5f5" stroke-width="2"/><path d="M21 22v23" stroke="#e2e8f0" opacity=".35" stroke-width="3"/><rect x="45" y="27" width="4" height="9" rx="2" fill="#34d399"/><path d="M12 58h40" stroke="#020817" stroke-opacity=".45" stroke-width="2"/></g></svg>
