<svg xmlns="http://www.w3.org/2000/svg" width="64" height="64" viewBox="0 0 64 64" shape-rendering="crispEdges"><g transform="translate(0 0) scale(2)"><rect x="25" y="0" width="2" height="1" fill="#e3b657"/><rect x="25" y="1" width="2" height="1" fill="#e3b657"/><rect x="24" y="2" width="4" height="1" fill="#e3b657"/><rect x="21" y="3" width="2" height="1" fill="#e3b657"/><rect x="24" y="3" width="4" height="1" fill="#e3b657"/><rect x="29" y="3" width="2" height="1" fill="#e3b657"/><rect x="21" y="4" width="2" height="1" fill="#e3b657"/><rect x="24" y="4" width="4" height="1" fill="#e3b657"/><rect x="29" y="4" width="2" height="1" fill="#e3b657"/><rect x="24" y="5" width="4" height="1" fill="#e3b657"/><rect x="25" y="7" width="2" height="1" fill="#e3b657"/><rect x="25" y="8" width="2" height="1" fill="#e3b657"/><rect x="2" y="11" width="28" height="1" fill="#10191e"/><rect x="2" y="12" width="1" height="1" fill="#10191e"/><rect x="3" y="12" width="26" height="1" fill="#a7b9b3"/><rect x="29" y="12" width="1" height="1" fill="#10191e"/><rect x="2" y="13" width="1" height="1" fill="#10191e"/><rect x="3" y="13" width="2" height="1" fill="#a7b9b3"/><rect x="5" y="13" width="1" height="1" fill="#63c6d1"/><rect x="6" y="13" width="2" height="1" fill="#a7b9b3"/><rect x="8" y="13" width="1" height="1" fill="#63c6d1"/><rect x="9" y="13" width="2" height="1" fill="#a7b9b3"/><rect x="11" y="13" width="1" height="1" fill="#63c6d1"/><rect x="12" y="13" width="2" height="1" fill="#a7b9b3"/><rect x="14" y="13" width="1" height="1" fill="#63c6d1"/><rect x="15" y="13" width="2" height="1" fill="#a7b9b3"/><rect x="17" y="13" width="1" height="1" fill="#63c6d1"/><rect x="18" y="13" width="2" height="1" fill="#a7b9b3"/><rect x="20" y="13" width="1" height="1" fill="#63c6d1"/><rect x="21" y="13" width="2" height="1" fill="#a7b9b3"/><rect x="23" y="13" width="1" height="1" fill="#63c6d1"/><rect x="24" y="13" width="2" height="1" fill="#a7b9b3"/><rect x="26" y="13" width="1" height="1" fill="#63c6d1"/><rect x="27" y="13" width="2" height="1" fill="#a7b9b3"/><rect x="29" y="13" width="1" height="1" fill="#63c6d1"/><rect x="2" y="14" width="1" height="1" fill="#10191e"/><rect x="3" y="14" width="2" height="1" fill="#455b63"/><rect x="5" y="14" width="1" height="1" fill="#63c6d1"/><rect x="6" y="14" width="2" height="1" fill="#455b63"/><rect x="8" y="14" width="1" height="1" fill="#63c6d1"/><rect x="9" y="14" width="2" height="1" fill="#455b63"/><rect x="11" y="14" width="1" height="1" fill="#63c6d1"/><rect x="12" y="14" width="2" height="1" fill="#455b63"/><rect x="14" y="14" width="1" height="1" fill="#63c6d1"/><rect x="15" y="14" width="2" height="1" fill="#455b63"/><rect x="17" y="14" width="1" height="1" fill="#63c6d1"/><rect x="18" y="14" width="2" height="1" fill="#455b63"/><rect x="20" y="14" width="1" height="1" fill="#63c6d1"/><rect x="21" y="14" width="2" height="1" fill="#455b63"/><rect x="23" y="14" width="1" height="1" fill="#63c6d1"/><rect x="24" y="14" width="2" height="1" fill="#455b63"/><rect x="26" y="14" width="1" height="1" fill="#63c6d1"/><rect x="27" y="14" width="2" height="1" fill="#293940"/><rect x="29" y="14" width="1" height="1" fill="#63c6d1"/><rect x="2" y="15" width="1" height="1" fill="#10191e"/><rect x="3" y="15" width="27" height="1" fill="#63c6d1"/><rect x="2" y="16" width="1" height="1" fill="#10191e"/><rect x="3" y="16" width="2" height="1" fill="#455b63"/><rect x="5" y="16" width="1" height="1" fill="#63c6d1"/><rect x="6" y="16" width="2" height="1" fill="#455b63"/><rect x="8" y="16" width="1" height="1" fill="#63c6d1"/><rect x="9" y="16" width="2" height="1" fill="#455b63"/><rect x="11" y="16" width="1" height="1" fill="#63c6d1"/><rect x="12" y="16" width="2" height="1" fill="#455b63"/><rect x="14" y="16" width="1" height="1" fill="#63c6d1"/><rect x="15" y="16" width="2" height="1" fill="#455b63"/><rect x="17" y="16" width="1" height="1" fill="#63c6d1"/><rect x="18" y="16" width="2" height="1" fill="#455b63"/><rect x="20" y="16" width="1" height="1" fill="#63c6d1"/><rect x="21" y="16" width="2" height="1" fill="#455b63"/><rect x="23" y="16" width="1" height="1" fill="#63c6d1"/><rect x="24" y="16" width="2" height="1" fill="#455b63"/><rect x="26" y="16" width="1" height="1" fill="#63c6d1"/><rect x="27" y="16" width="2" height="1" fill="#293940"/><rect x="29" y="16" width="1" height="1" fill="#63c6d1"/><rect x="2" y="17" width="1" height="1" fill="#10191e"/><rect x="3" y="17" width="2" height="1" fill="#455b63"/><rect x="5" y="17" width="1" height="1" fill="#63c6d1"/><rect x="6" y="17" width="2" height="1" fill="#455b63"/><rect x="8" y="17" width="1" height="1" fill="#63c6d1"/><rect x="9" y="17" width="2" height="1" fill="#455b63"/><rect x="11" y="17" width="1" height="1" fill="#63c6d1"/><rect x="12" y="17" width="2" height="1" fill="#455b63"/><rect x="14" y="17" width="1" height="1" fill="#63c6d1"/><rect x="15" y="17" width="2" height="1" fill="#455b63"/><rect x="17" y="17" width="1" height="1" fill="#63c6d1"/><rect x="18" y="17" width="2" height="1" fill="#455b63"/><rect x="20" y="17" width="1" height="1" fill="#63c6d1"/><rect x="21" y="17" width="2" height="1" fill="#455b63"/><rect x="23" y="17" width="1" height="1" fill="#63c6d1"/><rect x="24" y="17" width="2" height="1" fill="#455b63"/><rect x="26" y="17" width="1" height="1" fill="#63c6d1"/><rect x="27" y="17" width="2" height="1" fill="#293940"/><rect x="29" y="17" width="1" height="1" fill="#63c6d1"/><rect x="2" y="18" width="1" height="1" fill="#10191e"/><rect x="3" y="18" width="2" height="1" fill="#455b63"/><rect x="5" y="18" width="1" height="1" fill="#63c6d1"/><rect x="6" y="18" width="2" height="1" fill="#455b63"/><rect x="8" y="18" width="1" height="1" fill="#63c6d1"/><rect x="9" y="18" width="2" height="1" fill="#455b63"/><rect x="11" y="18" width="1" height="1" fill="#63c6d1"/><rect x="12" y="18" width="2" height="1" fill="#455b63"/><rect x="14" y="18" width="1" height="1" fill="#63c6d1"/><rect x="15" y="18" width="2" height="1" fill="#455b63"/><rect x="17" y="18" width="1" height="1" fill="#63c6d1"/><rect x="18" y="18" width="2" height="1" fill="#455b63"/><rect x="20" y="18" width="1" height="1" fill="#63c6d1"/><rect x="21" y="18" width="2" height="1" fill="#455b63"/><rect x="23" y="18" width="1" height="1" fill="#63c6d1"/><rect x="24" y="18" width="2" height="1" fill="#455b63"/><rect x="26" y="18" width="1" height="1" fill="#63c6d1"/><rect x="27" y="18" width="2" height="1" fill="#293940"/><rect x="29" y="18" width="1" height="1" fill="#63c6d1"/><rect x="2" y="19" width="1" height="1" fill="#10191e"/><rect x="3" y="19" width="27" height="1" fill="#63c6d1"/><rect x="2" y="20" width="1" height="1" fill="#10191e"/><rect x="3" y="20" width="2" height="1" fill="#455b63"/><rect x="5" y="20" width="1" height="1" fill="#63c6d1"/><rect x="6" y="20" width="2" height="1" fill="#455b63"/><rect x="8" y="20" width="1" height="1" fill="#63c6d1"/><rect x="9" y="20" width="2" height="1" fill="#455b63"/><rect x="11" y="20" width="1" height="1" fill="#63c6d1"/><rect x="12" y="20" width="2" height="1" fill="#455b63"/><rect x="14" y="20" width="1" height="1" fill="#63c6d1"/><rect x="15" y="20" width="2" height="1" fill="#455b63"/><rect x="17" y="20" width="1" height="1" fill="#63c6d1"/><rect x="18" y="20" width="2" height="1" fill="#455b63"/><rect x="20" y="20" width="1" height="1" fill="#63c6d1"/><rect x="21" y="20" width="2" height="1" fill="#455b63"/><rect x="23" y="20" width="1" height="1" fill="#63c6d1"/><rect x="24" y="20" width="2" height="1" fill="#455b63"/><rect x="26" y="20" width="1" height="1" fill="#63c6d1"/><rect x="27" y="20" width="2" height="1" fill="#293940"/><rect x="29" y="20" width="1" height="1" fill="#63c6d1"/><rect x="2" y="21" width="1" height="1" fill="#10191e"/><rect x="3" y="21" width="1" height="1" fill="#455b63"/><rect x="4" y="21" width="1" height="1" fill="#6e8588"/><rect x="5" y="21" width="1" height="1" fill="#63c6d1"/><rect x="6" y="21" width="2" height="1" fill="#6e8588"/><rect x="8" y="21" width="1" height="1" fill="#63c6d1"/><rect x="9" y="21" width="2" height="1" fill="#6e8588"/><rect x="11" y="21" width="1" height="1" fill="#63c6d1"/><rect x="12" y="21" width="2" height="1" fill="#6e8588"/><rect x="14" y="21" width="1" height="1" fill="#63c6d1"/><rect x="15" y="21" width="2" height="1" fill="#6e8588"/><rect x="17" y="21" width="1" height="1" fill="#63c6d1"/><rect x="18" y="21" width="2" height="1" fill="#6e8588"/><rect x="20" y="21" width="1" height="1" fill="#63c6d1"/><rect x="21" y="21" width="2" height="1" fill="#6e8588"/><rect x="23" y="21" width="1" height="1" fill="#63c6d1"/><rect x="24" y="21" width="2" height="1" fill="#6e8588"/><rect x="26" y="21" width="1" height="1" fill="#63c6d1"/><rect x="27" y="21" width="2" height="1" fill="#293940"/><rect x="29" y="21" width="1" height="1" fill="#63c6d1"/><rect x="2" y="22" width="1" height="1" fill="#10191e"/><rect x="3" y="22" width="24" height="1" fill="#455b63"/><rect x="27" y="22" width="2" height="1" fill="#293940"/><rect x="29" y="22" width="1" height="1" fill="#10191e"/><rect x="2" y="23" width="1" height="1" fill="#10191e"/><rect x="3" y="23" width="26" height="1" fill="#63c6d1"/><rect x="29" y="23" width="1" height="1" fill="#10191e"/><rect x="4" y="24" width="4" height="1" fill="#10191e"/><rect x="8" y="24" width="2" height="1" fill="#455b63"/><rect x="10" y="24" width="13" height="1" fill="#10191e"/><rect x="23" y="24" width="2" height="1" fill="#455b63"/><rect x="25" y="24" width="7" height="1" fill="#10191e"/><rect x="4" y="25" width="4" height="1" fill="#10191e"/><rect x="8" y="25" width="2" height="1" fill="#455b63"/><rect x="10" y="25" width="13" height="1" fill="#10191e"/><rect x="23" y="25" width="2" height="1" fill="#455b63"/><rect x="25" y="25" width="7" height="1" fill="#10191e"/><rect x="8" y="26" width="2" height="1" fill="#455b63"/><rect x="23" y="26" width="2" height="1" fill="#455b63"/><rect x="8" y="27" width="2" height="1" fill="#455b63"/><rect x="23" y="27" width="2" height="1" fill="#455b63"/><rect x="8" y="28" width="2" height="1" fill="#455b63"/><rect x="23" y="28" width="2" height="1" fill="#455b63"/><rect x="7" y="29" width="19" height="1" fill="#6e8588"/></g></svg>
