<svg xmlns="http://www.w3.org/2000/svg" width="192" height="64" viewBox="0 0 192 64"><defs><linearGradient id="steel" x1="0" y1="0" x2="1" y2="1"><stop stop-color="#536b80"/><stop offset=".45" stop-color="#26394c"/><stop offset="1" stop-color="#111c2a"/></linearGradient></defs><g transform="translate(0 0)"><path d="M14 54V10h36v44z" fill="url(#steel)" stroke="#91a5b9" stroke-width="2"/><path d="M19 15h26v10H19zm0 14h26v10H19zm0 14h26v7H19z" fill="#071522" stroke="#344a60"/><g fill="#38d6b0"><rect x="40" y="18" width="2.4" height="2.4" rx=".8" fill="#245746"/><rect x="44" y="18" width="2.4" height="2.4" rx=".8" fill="#42e2b3"/><rect x="40" y="24" width="2.4" height="2.4" rx=".8" fill="#42e2b3"/><rect x="44" y="24" width="2.4" height="2.4" rx=".8" fill="#42e2b3"/><rect x="40" y="30" width="2.4" height="2.4" rx=".8" fill="#245746"/><rect x="44" y="30" width="2.4" height="2.4" rx=".8" fill="#42e2b3"/><rect x="40" y="36" width="2.4" height="2.4" rx=".8" fill="#42e2b3"/><rect x="44" y="36" width="2.4" height="2.4" rx=".8" fill="#42e2b3"/><rect x="40" y="42" width="2.4" height="2.4" rx=".8" fill="#245746"/><rect x="44" y="42" width="2.4" height="2.4" rx=".8" fill="#42e2b3"/></g><path d="M17 11v42" stroke="#d2dee8" opacity=".5" stroke-width="2"/><path d="M12 58h40" stroke="#020817" stroke-opacity=".45" stroke-width="2"/></g><g transform="translate(64 0)"><path d="M14 54V10h36v44z" fill="url(#steel)" stroke="#91a5b9" stroke-width="2"/><path d="M19 15h26v10H19zm0 14h26v10H19zm0 14h26v7H19z" fill="#071522" stroke="#344a60"/><g fill="#38d6b0"><rect x="40" y="18" width="2.4" height="2.4" rx=".8" fill="#42e2b3"/><rect x="44" y="18" width="2.4" height="2.4" rx=".8" fill="#245746"/><rect x="40" y="24" width="2.4" height="2.4" rx=".8" fill="#42e2b3"/><rect x="44" y="24" width="2.4" height="2.4" rx=".8" fill="#42e2b3"/><rect x="40" y="30" width="2.4" height="2.4" rx=".8" fill="#42e2b3"/><rect x="44" y="30" width="2.4" height="2.4" rx=".8" fill="#245746"/><rect x="40" y="36" width="2.4" height="2.4" rx=".8" fill="#42e2b3"/><rect x="44" y="36" width="2.4" height="2.4" rx=".8" fill="#42e2b3"/><rect x="40" y="42" width="2.4" height="2.4" rx=".8" fill="#42e2b3"/><rect x="44" y="42" width="2.4" height="2.4" rx=".8" fill="#245746"/></g><path d="M17 11v42" stroke="#d2dee8" opacity=".5" stroke-width="2"/><path d="M12 58h40" stroke="#020817" stroke-opacity=".45" stroke-width="2"/></g><g transform="translate(128 0)"><path d="M14 54V10h36v44z" fill="url(#steel)" stroke="#91a5b9" stroke-width="2"/><path d="M19 15h26v10H19zm0 14h26v10H19zm0 14h26v7H19z" fill="#071522" stroke="#344a60"/><g fill="#38d6b0"><rect x="40" y="18" width="2.4" height="2.4" rx=".8" fill="#42e2b3"/><rect x="44" y="18" width="2.4" height="2.4" rx=".8" fill="#42e2b3"/><rect x="40" y="24" width="2.4" height="2.4" rx=".8" fill="#245746"/><rect x="44" y="24" width="2.4" height="2.4" rx=".8" fill="#42e2b3"/><rect x="40" y="30" width="2.4" height="2.4" rx=".8" fill="#42e2b3"/><rect x="44" y="30" width="2.4" height="2.4" rx=".8" fill="#42e2b3"/><rect x="40" y="36" width="2.4" height="2.4" rx=".8" fill="#245746"/><rect x="44" y="36" width="2.4" height="2.4" rx=".8" fill="#42e2b3"/><rect x="40" y="42" width="2.4" height="2.4" rx=".8" fill="#42e2b3"/><rect x="44" y="42" width="2.4" height="2.4" rx=".8" fill="#42e2b3"/></g><path d="M17 11v42" stroke="#d2dee8" opacity=".5" stroke-width="2"/><path d="M12 58h40" stroke="#020817" stroke-opacity=".45" stroke-width="2"/></g></svg>
