<svg xmlns="http://www.w3.org/2000/svg" width="192" height="64" viewBox="0 0 192 64"><defs><linearGradient id="steel" x1="0" y1="0" x2="1" y2="1"><stop stop-color="#536b80"/><stop offset=".45" stop-color="#26394c"/><stop offset="1" stop-color="#111c2a"/></linearGradient></defs><g transform="translate(0 0)"><rect x="7" y="8" width="50" height="48" rx="9" fill="url(#steel)" stroke="#72d9eb" stroke-width="2"/><circle cx="32" cy="32" r="21" fill="#071320" stroke="#54738b" stroke-width="2"/><g transform="rotate(0 32 32)" fill="#31c3df"><path d="M32 32q-8-15 0-17 9 9 0 17m0 0q15-8 17 0-9 9-17 0m0 0q8 15 0 17-9-9 0-17m0 0q-15 8-17 0 9-9 17 0"/></g><circle cx="32" cy="32" r="4" fill="#defaff"/><path d="M13 13l5 5m28 28 5 5m0-38-5 5m-28 28-5 5" stroke="#c1d2df" stroke-width="2"/><path d="M12 58h40" stroke="#020817" stroke-opacity=".45" stroke-width="2"/></g><g transform="translate(64 0)"><rect x="7" y="8" width="50" height="48" rx="9" fill="url(#steel)" stroke="#72d9eb" stroke-width="2"/><circle cx="32" cy="32" r="21" fill="#071320" stroke="#54738b" stroke-width="2"/><g transform="rotate(120 32 32)" fill="#31c3df"><path d="M32 32q-8-15 0-17 9 9 0 17m0 0q15-8 17 0-9 9-17 0m0 0q8 15 0 17-9-9 0-17m0 0q-15 8-17 0 9-9 17 0"/></g><circle cx="32" cy="32" r="4" fill="#defaff"/><path d="M13 13l5 5m28 28 5 5m0-38-5 5m-28 28-5 5" stroke="#c1d2df" stroke-width="2"/><path d="M12 58h40" stroke="#020817" stroke-opacity=".45" stroke-width="2"/></g><g transform="translate(128 0)"><rect x="7" y="8" width="50" height="48" rx="9" fill="url(#steel)" stroke="#72d9eb" stroke-width="2"/><circle cx="32" cy="32" r="21" fill="#071320" stroke="#54738b" stroke-width="2"/><g transform="rotate(240 32 32)" fill="#31c3df"><path d="M32 32q-8-15 0-17 9 9 0 17m0 0q15-8 17 0-9 9-17 0m0 0q8 15 0 17-9-9 0-17m0 0q-15 8-17 0 9-9 17 0"/></g><circle cx="32" cy="32" r="4" fill="#defaff"/><path d="M13 13l5 5m28 28 5 5m0-38-5 5m-28 28-5 5" stroke="#c1d2df" stroke-width="2"/><path d="M12 58h40" stroke="#020817" stroke-opacity=".45" stroke-width="2"/></g></svg>
