<svg xmlns="http://www.w3.org/2000/svg" width="192" height="64" viewBox="0 0 192 64"><defs><linearGradient id="steel" x1="0" y1="0" x2="1" y2="1"><stop stop-color="#536b80"/><stop offset=".45" stop-color="#26394c"/><stop offset="1" stop-color="#111c2a"/></linearGradient></defs><g transform="translate(0 0)"><rect x="8" y="12" width="48" height="42" rx="6" fill="url(#steel)" stroke="#fb9565" stroke-width="2"/><circle cx="32" cy="32" r="16" fill="#101824" stroke="#a65c43" stroke-width="2"/><g transform="rotate(0 32 32)" fill="#fb754f"><path d="M32 32q-7-11 0-13 8 7 0 13m0 0q11-7 13 0-7 8-13 0m0 0q7 11 0 13-8-7 0-13m0 0q-11 7-13 0 7-8 13 0"/></g><circle cx="32" cy="32" r="3" fill="#ffded0"/><path d="M14 18h5m26 0h5M14 47h5m26 0h5" stroke="#ffd0b4" stroke-width="2"/><circle cx="49" cy="18" r="2" fill="#4ade80"/><path d="M12 58h40" stroke="#020817" stroke-opacity=".45" stroke-width="2"/></g><g transform="translate(64 0)"><rect x="8" y="12" width="48" height="42" rx="6" fill="url(#steel)" stroke="#fb9565" stroke-width="2"/><circle cx="32" cy="32" r="16" fill="#101824" stroke="#a65c43" stroke-width="2"/><g transform="rotate(120 32 32)" fill="#fb754f"><path d="M32 32q-7-11 0-13 8 7 0 13m0 0q11-7 13 0-7 8-13 0m0 0q7 11 0 13-8-7 0-13m0 0q-11 7-13 0 7-8 13 0"/></g><circle cx="32" cy="32" r="3" fill="#ffded0"/><path d="M14 18h5m26 0h5M14 47h5m26 0h5" stroke="#ffd0b4" stroke-width="2"/><circle cx="49" cy="18" r="2" fill="#4ade80"/><path d="M12 58h40" stroke="#020817" stroke-opacity=".45" stroke-width="2"/></g><g transform="translate(128 0)"><rect x="8" y="12" width="48" height="42" rx="6" fill="url(#steel)" stroke="#fb9565" stroke-width="2"/><circle cx="32" cy="32" r="16" fill="#101824" stroke="#a65c43" stroke-width="2"/><g transform="rotate(240 32 32)" fill="#fb754f"><path d="M32 32q-7-11 0-13 8 7 0 13m0 0q11-7 13 0-7 8-13 0m0 0q7 11 0 13-8-7 0-13m0 0q-11 7-13 0 7-8 13 0"/></g><circle cx="32" cy="32" r="3" fill="#ffded0"/><path d="M14 18h5m26 0h5M14 47h5m26 0h5" stroke="#ffd0b4" stroke-width="2"/><circle cx="49" cy="18" r="2" fill="#4ade80"/><path d="M12 58h40" stroke="#020817" stroke-opacity=".45" stroke-width="2"/></g></svg>
